<?xml version="1.0" standalone="no"?>
<!DOCTYPE svg PUBLIC "-//W3C//DTD SVG 20010904//EN"
 "http://www.w3.org/TR/2001/REC-SVG-20010904/DTD/svg10.dtd">
<svg version="1.0" xmlns="http://www.w3.org/2000/svg"
 width="328.000000pt" height="328.000000pt" viewBox="0 0 328.000000 328.000000"
 preserveAspectRatio="xMidYMid meet">
<metadata>
Created by potrace 1.11, written by Peter Selinger 2001-2013
</metadata>
<g transform="translate(0.000000,328.000000) scale(0.100000,-0.100000)"
fill="#000000" stroke="none">
<path d="M0 1640 l0 -1640 725 0 c399 0 725 3 725 8 0 4 7 52 15 107 18 128
19 244 0 322 -14 61 -90 256 -155 398 -21 45 -39 109 -51 180 -22 129 -21 117
-10 134 7 10 34 -3 123 -62 125 -84 237 -140 372 -186 49 -16 92 -35 96 -41 4
-6 20 -13 36 -16 16 -3 33 -9 39 -15 5 -5 30 -9 56 -9 93 0 93 -1 -81 -171
-154 -151 -162 -161 -204 -251 -49 -105 -98 -242 -120 -335 l-14 -63 864 0
864 0 0 1640 0 1640 -1640 0 -1640 0 0 -1640z m1372 1481 c14 8 26 6 44 -6 13
-9 45 -16 69 -17 33 0 51 -7 67 -23 28 -29 31 -52 7 -58 -35 -9 -22 -30 14
-23 17 4 49 7 70 8 20 0 37 4 37 9 0 5 -7 9 -15 9 -8 0 -15 9 -15 21 0 11 4
18 9 15 15 -10 39 4 44 26 4 14 11 19 22 14 9 -3 27 1 41 10 16 11 24 12 24 5
0 -9 17 -10 58 -5 47 5 60 3 71 -10 8 -9 21 -14 30 -11 10 3 24 -5 35 -19 10
-14 24 -22 32 -19 8 3 14 0 14 -6 0 -6 -5 -11 -12 -11 -6 0 -8 -3 -5 -6 4 -4
12 -2 20 4 13 11 40 1 37 -14 -3 -20 9 -46 19 -40 6 4 7 14 4 23 -6 14 -2 14
20 -3 16 -12 30 -36 39 -67 12 -48 12 -48 29 -26 16 21 16 21 38 -24 14 -29
27 -44 35 -41 9 3 18 -7 24 -25 8 -21 8 -31 1 -31 -14 0 -48 41 -49 58 0 7 -4
11 -9 8 -5 -3 -26 8 -47 24 -22 16 -56 41 -76 55 -21 14 -38 29 -38 33 0 4
-18 8 -40 8 -50 2 -49 -17 1 -27 18 -4 41 -17 51 -29 10 -12 21 -19 26 -16 5
3 22 -7 39 -22 24 -23 29 -35 27 -64 -2 -28 0 -36 11 -32 7 3 17 13 20 22 6
15 8 15 15 -3 4 -11 3 -29 -2 -40 -8 -15 -8 -17 2 -9 16 15 53 5 46 -12 -3 -8
-1 -14 5 -14 6 0 8 -9 4 -21 -5 -14 -4 -19 4 -15 7 5 9 1 5 -9 -5 -11 0 -18
14 -22 18 -4 21 -11 17 -39 -3 -26 0 -34 16 -39 10 -4 17 -11 14 -16 -4 -5 4
-9 17 -10 l23 0 -22 -11 c-18 -9 -20 -14 -11 -34 6 -13 15 -24 20 -24 14 0 9
-22 -9 -35 -16 -12 -16 -15 7 -35 17 -14 21 -23 13 -26 -9 -4 -10 -11 -3 -25
9 -15 7 -19 -5 -19 -12 0 -13 -4 -6 -17 11 -22 11 -73 0 -73 -20 0 -55 91 -84
215 -14 63 -78 171 -133 228 -31 31 -61 57 -67 57 -5 0 -3 -6 5 -13 8 -7 22
-21 30 -31 14 -18 13 -19 -6 -14 -20 5 -20 5 -3 -30 10 -19 16 -39 13 -44 -3
-5 0 -16 7 -24 6 -8 9 -17 6 -21 -4 -3 -2 -14 4 -25 8 -15 7 -22 -7 -32 -10
-8 -15 -20 -11 -29 3 -9 2 -19 -3 -22 -6 -4 -7 -13 -2 -23 5 -9 8 -34 7 -55
-1 -29 2 -37 12 -32 11 3 13 -1 8 -16 -6 -17 -4 -20 6 -13 12 6 12 5 0 -9 -9
-11 -10 -17 -2 -17 18 0 13 -27 -6 -34 -14 -6 -15 -9 -4 -15 9 -6 1 -14 -28
-27 -22 -10 -41 -23 -41 -28 0 -6 -21 -20 -47 -30 -63 -26 -165 -26 -324 2
-180 30 -197 31 -232 14 -33 -17 -185 -51 -228 -52 -33 0 -37 10 -33 84 5 87
-8 96 -30 20 -12 -40 -26 -69 -38 -75 -25 -14 -58 -42 -58 -50 0 -12 55 4 63
18 5 7 12 11 17 8 13 -8 -25 -73 -57 -97 -49 -37 -50 -41 -9 -35 21 4 47 14
57 23 11 9 19 13 20 8 0 -5 2 -18 4 -29 5 -26 -12 -45 -62 -67 -24 -10 -43
-20 -43 -22 0 -9 57 9 69 22 12 12 16 12 19 2 3 -7 -3 -19 -12 -25 -15 -12
-15 -13 -1 -19 22 -8 15 -48 -8 -52 -10 -1 -26 -6 -35 -10 -9 -4 -24 -8 -32
-8 -8 -1 -16 -9 -18 -20 -3 -11 0 -16 7 -11 6 3 9 10 6 14 -2 5 11 1 30 -7 39
-18 42 -24 20 -42 -11 -9 -15 -9 -15 -1 0 7 -9 3 -21 -7 -16 -16 -27 -18 -54
-12 -19 4 -36 5 -39 2 -4 -3 -6 2 -6 11 0 9 -4 18 -9 21 -11 7 -74 -16 -84
-31 -4 -7 -15 -13 -22 -13 -21 0 -18 -20 3 -20 12 -1 9 -5 -11 -16 -15 -8 -36
-14 -45 -13 -9 1 -28 1 -41 0 l-23 -1 23 -21 c13 -11 17 -19 9 -16 -71 21 -67
21 -45 3 25 -20 49 -20 68 -1 13 13 16 11 22 -12 7 -31 -9 -45 -42 -36 -14 3
-23 1 -23 -6 0 -20 -64 -2 -87 25 -13 14 -23 20 -23 14 0 -6 -4 -9 -8 -6 -5 3
-9 -1 -9 -8 0 -9 7 -12 16 -8 9 3 13 2 9 -3 -4 -4 -3 -15 2 -25 8 -14 5 -16
-14 -13 -17 4 -25 13 -28 35 -4 22 6 46 43 101 26 40 43 74 38 75 -5 2 -9 8
-9 13 0 6 5 7 11 3 10 -6 28 11 29 26 0 3 -17 6 -37 8 -21 1 -41 9 -46 17 -4
9 -12 13 -16 10 -5 -2 -11 4 -14 15 -6 22 -23 27 -30 8 -2 -7 -2 -4 0 7 3 11
7 33 10 49 4 18 17 35 40 48 41 25 31 44 -22 43 -21 -1 -40 5 -48 14 -10 12
-9 13 2 7 10 -7 12 -3 6 13 -7 23 12 30 21 7 5 -14 54 -17 54 -3 0 4 5 7 11 7
5 0 7 -4 4 -10 -3 -5 -2 -10 3 -10 6 0 12 7 16 15 4 12 -1 15 -23 13 -33 -2
-62 18 -60 41 3 29 -1 36 -11 21 -8 -13 -10 -12 -10 3 0 9 5 17 11 17 5 0 7 5
4 10 -4 6 5 24 20 41 20 25 23 34 14 45 -9 11 -7 14 12 14 24 1 24 1 -4 16
-23 12 -26 19 -20 42 4 15 6 40 5 56 -1 15 12 56 27 90 16 33 37 86 47 116 9
30 25 66 34 80 10 14 30 49 45 79 38 75 122 167 231 250 74 57 96 67 209 100
81 23 126 30 139 19 5 -4 18 -2 28 3z m888 -263 c0 -6 -7 -5 -15 2 -8 7 -15
17 -15 22 0 6 7 5 15 -2 8 -7 15 -17 15 -22z m50 -108 c0 -5 -7 -7 -15 -4 -8
4 -12 10 -9 15 6 11 24 2 24 -11z m28 -53 c2 -15 -1 -27 -7 -27 -6 0 -11 6
-12 13 0 6 -2 20 -4 30 -2 10 2 17 8 14 7 -2 13 -16 15 -30z m29 -64 c-3 -10
-5 -4 -5 12 0 17 2 24 5 18 2 -7 2 -21 0 -30z m-8 -56 c0 -9 -2 -9 -5 0 -3 7
-13 9 -22 6 -14 -4 -14 -3 -2 5 16 12 30 7 29 -11z m48 -39 c-3 -8 -6 -5 -6 6
-1 11 2 17 5 13 3 -3 4 -12 1 -19z m6 -43 c-3 -9 -8 -14 -10 -11 -3 3 -2 9 2
15 9 16 15 13 8 -4z m1 -118 c4 -18 11 -25 19 -21 7 4 3 -3 -8 -16 l-20 -23
23 12 c22 12 23 11 20 -21 -2 -18 -7 -31 -13 -28 -5 2 -9 10 -7 17 2 7 -2 13
-8 13 -11 0 -13 -11 -4 -34 3 -9 17 -16 30 -16 13 0 24 -4 24 -10 0 -5 -4 -10
-10 -10 -5 0 -6 -8 -3 -17 5 -12 2 -15 -8 -11 -10 4 -15 -1 -17 -15 0 -12 2
-17 6 -12 4 6 22 8 42 4 19 -3 28 -7 20 -8 -13 -1 -13 -3 -1 -10 12 -8 10 -11
-10 -16 -24 -6 -56 -42 -46 -52 3 -2 14 -5 26 -6 19 -1 19 -2 4 -19 -9 -10
-20 -18 -25 -18 -6 0 -18 -10 -28 -22 -17 -21 -19 -21 -25 -5 -4 10 0 28 11
45 18 28 20 83 3 112 -7 13 -8 12 -9 -2 0 -10 -4 -18 -10 -18 -16 0 -12 70 5
76 19 8 20 34 1 34 -15 0 -10 51 7 61 6 4 6 13 -1 24 -5 10 -7 27 -4 39 3 11
7 16 8 11 1 -6 5 -23 8 -38z m-500 -354 c7 -16 21 -55 31 -88 10 -33 28 -82
41 -110 13 -28 22 -63 20 -79 -4 -35 -42 -70 -65 -60 -70 30 -106 37 -143 27
-39 -10 -39 -10 -45 20 l-6 31 -29 -34 c-15 -19 -28 -38 -28 -44 0 -5 -11 -24
-26 -43 -14 -18 -22 -33 -19 -33 3 0 1 -9 -4 -19 -8 -14 -7 -20 3 -24 21 -8
33 5 66 71 30 61 30 62 50 42 13 -13 33 -20 60 -20 40 0 100 -23 100 -38 0 -5
-4 -12 -9 -18 -5 -5 -12 -26 -15 -47 -6 -33 -4 -38 19 -49 31 -14 56 2 37 24
-6 8 -7 19 -3 27 7 10 12 8 25 -10 9 -13 16 -29 16 -35 0 -18 -57 -33 -115
-32 -30 1 -64 -5 -84 -15 -45 -23 -61 -21 -61 4 0 17 -4 20 -22 15 -13 -3 -29
-6 -35 -6 -7 0 -13 -5 -13 -12 0 -6 -6 -19 -14 -27 -7 -9 -17 -26 -21 -39 -10
-35 22 -41 48 -8 21 25 25 26 69 18 25 -5 52 -5 60 -1 17 12 88 11 88 0 0 -5
17 -16 37 -24 l38 -15 -40 -11 c-22 -6 -47 -11 -56 -11 -24 0 -30 -11 -16 -28
6 -8 12 -24 12 -36 0 -18 6 -20 50 -18 64 3 90 -15 81 -54 -11 -41 -45 -84
-67 -84 -10 0 -19 -5 -19 -11 0 -8 -6 -7 -17 2 -11 10 -14 10 -9 2 8 -14 -9
-17 -88 -14 -33 1 -53 7 -62 19 -7 9 -14 13 -14 8 0 -6 -7 -1 -15 10 -8 10
-15 16 -15 12 0 -4 -12 4 -27 18 -15 14 -33 22 -40 19 -8 -2 -11 0 -8 5 4 6
-11 8 -39 4 -32 -3 -46 -1 -46 7 0 6 -8 9 -20 6 -11 -3 -18 -2 -16 2 2 3 -3
15 -11 26 -13 16 -15 17 -10 3 8 -24 2 -23 -24 5 -12 12 -18 16 -14 8 6 -10 4
-12 -4 -7 -7 5 -10 14 -7 22 3 8 0 14 -6 14 -6 0 -21 11 -33 24 -13 14 -26 22
-29 19 -3 -4 -6 1 -6 11 0 11 -4 15 -12 10 -10 -6 -10 -5 -1 7 10 12 8 15 -8
16 -12 1 -17 -3 -13 -9 4 -6 3 -8 -4 -5 -5 4 -8 16 -5 27 3 11 9 17 14 14 5
-3 9 0 9 6 0 17 -31 8 -44 -13 -9 -15 -7 -22 13 -38 13 -10 18 -19 13 -19 -6
0 -14 5 -17 10 -4 6 -10 8 -14 6 -11 -7 -11 37 1 51 6 7 7 13 2 13 -5 0 -3 4
5 9 12 8 12 14 4 33 -10 19 -12 20 -12 5 -1 -10 -6 -15 -11 -12 -6 4 -7 12 -1
23 6 11 5 19 -5 27 -8 6 -17 24 -19 40 -8 53 -11 64 -18 71 -4 4 -7 22 -7 39
0 17 -3 35 -7 39 -5 4 -8 81 -8 172 l0 164 43 6 c24 4 47 3 51 -2 4 -5 15 -35
25 -66 21 -73 69 -136 126 -168 39 -21 57 -25 131 -24 73 0 95 4 143 28 67 33
108 87 126 169 6 29 13 58 15 65 7 21 34 13 49 -15z m592 -18 c2 -5 -11 -19
-29 -31 -18 -11 -31 -26 -29 -32 1 -7 -2 -12 -8 -12 -5 0 -10 3 -11 8 -1 15
-7 37 -14 54 -5 14 -2 16 14 13 12 -2 21 1 21 6 0 13 53 7 56 -6z m14 -125 c0
-5 -5 -10 -11 -10 -5 0 -7 5 -4 10 3 6 8 10 11 10 2 0 4 -4 4 -10z m-47 -18
c-16 -15 -53 -28 -53 -17 0 21 17 35 41 35 28 0 28 -1 12 -18z m-1873 -22 c0
-5 7 -10 15 -10 16 0 55 -34 55 -49 0 -13 -31 -7 -67 12 -34 18 -46 57 -18 57
8 0 15 -4 15 -10z m1534 -46 c-18 -15 -18 -15 7 -11 17 2 26 -1 26 -10 0 -7
-4 -13 -9 -13 -5 0 3 -12 17 -27 16 -18 23 -34 19 -47 -4 -12 -2 -16 5 -12 6
4 11 2 11 -3 0 -6 -4 -11 -9 -11 -5 0 -8 -12 -8 -26 0 -42 -19 -50 -34 -15 -8
17 -17 31 -21 31 -7 0 -26 53 -34 96 -3 15 -8 32 -11 37 -7 12 9 22 38 24 21
2 21 1 3 -13z m346 -33 c0 -5 -9 -11 -20 -14 -20 -5 -26 3 -13 16 9 10 33 8
33 -2z m-1890 -26 c7 -9 8 -15 2 -15 -5 0 -12 7 -16 15 -3 8 -4 15 -2 15 2 0
9 -7 16 -15z m439 -37 c31 -22 20 -39 -18 -28 -36 10 -49 1 -19 -14 33 -17 36
-38 4 -30 -17 4 -26 2 -26 -5 0 -9 -5 -9 -20 -1 -11 6 -20 9 -21 8 -8 -31 -5
-33 42 -30 35 3 53 -1 65 -12 8 -9 20 -13 26 -10 6 4 9 1 6 -7 -3 -8 -18 -14
-35 -14 -23 1 -29 -3 -25 -14 4 -11 0 -13 -16 -9 -13 4 -25 1 -30 -6 -4 -7
-16 -18 -27 -24 -17 -10 -14 -11 20 -6 39 5 104 -10 92 -23 -4 -3 -23 -7 -44
-10 -61 -6 -64 -9 -60 -53 5 -46 -6 -59 -29 -36 -17 17 -27 71 -28 154 -1 29
-6 52 -12 52 -5 0 -11 19 -12 43 -2 33 2 48 18 62 48 44 99 48 149 13z m1461
28 c0 -2 -8 -10 -17 -17 -16 -13 -17 -12 -4 4 13 16 21 21 21 13z m-1642 -178
c1 -18 5 -40 8 -50 2 -9 0 -19 -5 -22 -6 -4 -7 -14 -4 -24 5 -13 3 -14 -7 -5
-7 6 -19 9 -27 6 -11 -5 -11 -9 4 -25 15 -16 15 -18 1 -13 -13 5 -15 2 -11
-14 3 -12 13 -21 22 -21 13 0 14 -2 2 -9 -9 -6 -23 -4 -38 6 -21 14 -23 14
-29 -1 -3 -9 -1 -23 6 -31 6 -8 8 -20 4 -26 -4 -7 -3 -9 3 -6 6 4 16 0 22 -7
10 -12 7 -14 -21 -11 -32 4 -32 3 7 -10 36 -12 38 -14 18 -20 -13 -4 -20 -12
-17 -19 3 -6 -2 -2 -10 8 -9 11 -16 16 -16 10 0 -5 -5 -1 -11 9 -5 9 -19 17
-29 17 -15 0 -20 7 -22 28 0 15 -2 34 -3 42 -2 24 13 47 35 53 17 4 20 2 15
-11 -5 -13 -3 -14 5 -6 9 9 9 17 1 32 -18 33 -2 75 42 114 23 21 44 38 47 38
3 0 7 -15 8 -32z m1328 -100 c0 -21 -7 -23 -24 -6 -17 17 -15 27 6 25 10 0 18
-9 18 -19z m-1162 -5 c4 -10 4 -14 0 -11 -4 4 -16 1 -28 -7 -27 -20 -31 -19
-33 4 -1 14 6 21 25 24 15 2 28 5 28 6 1 0 5 -7 8 -16z m980 -22 c6 -9 -35
-24 -43 -15 -6 5 18 24 31 24 4 0 9 -4 12 -9z m-991 -48 c-7 -2 -13 -11 -13
-19 0 -8 -7 -17 -15 -20 -8 -4 -13 -9 -11 -13 2 -3 0 -15 -4 -26 -7 -18 -8
-18 -15 7 -9 34 19 78 49 77 11 0 15 -3 9 -6z m-168 -53 c-3 -5 -12 -10 -18
-10 -7 0 -6 4 3 10 19 12 23 12 15 0z m490 1 c3 -5 1 -12 -4 -15 -5 -3 -11 1
-15 9 -6 16 9 21 19 6z m341 -226 c77 -40 104 -62 104 -82 0 -10 -6 -12 -21
-8 -16 5 -19 4 -14 -5 6 -9 1 -10 -16 -4 -13 4 -32 7 -41 6 -10 0 -18 2 -18 6
0 4 -9 9 -20 10 -43 4 -49 6 -44 14 3 4 -8 11 -24 14 -17 4 -35 16 -43 30 -7
13 -16 24 -21 24 -5 0 -3 7 4 15 23 25 82 18 154 -20z m-492 -864 c-4 -3 -9 0
-11 7 -3 6 -10 9 -15 6 -7 -4 -8 -2 -4 5 6 9 11 9 22 0 8 -6 12 -15 8 -18z
m66 -15 c0 -6 -5 -4 -10 4 -8 12 -11 11 -17 -10 l-7 -25 -6 25 c-10 40 -1 54
21 34 11 -9 19 -22 19 -28z"/>
<path d="M1514 3068 c-4 -6 -3 -8 4 -4 6 3 15 -2 21 -11 5 -10 13 -15 17 -11
7 8 -13 38 -27 38 -4 0 -11 -5 -15 -12z"/>
<path d="M1861 2989 c18 -11 39 -11 39 0 0 5 -12 9 -26 9 -18 0 -22 -3 -13 -9z"/>
<path d="M1945 2970 c-3 -5 1 -10 10 -10 9 0 13 5 10 10 -3 6 -8 10 -10 10 -2
0 -7 -4 -10 -10z"/>
<path d="M2035 2750 c3 -5 11 -10 16 -10 6 0 7 5 4 10 -3 6 -11 10 -16 10 -6
0 -7 -4 -4 -10z"/>
<path d="M1178 2361 c-14 -14 -15 -20 -5 -31 6 -7 7 -10 1 -7 -6 3 -11 0 -11
-7 0 -8 6 -12 14 -9 7 3 13 13 13 23 0 11 5 22 10 25 12 7 13 25 3 24 -5 0
-16 -8 -25 -18z"/>
<path d="M730 2110 c-9 -6 -10 -10 -3 -10 6 0 15 5 18 10 8 12 4 12 -15 0z"/>
<path d="M891 2009 c-1 -24 -19 -41 -46 -43 -5 -1 -10 -9 -10 -18 0 -10 -3
-18 -7 -18 -4 -1 -22 -7 -40 -14 -18 -7 -39 -11 -45 -9 -7 3 -13 0 -13 -6 0
-6 6 -10 13 -8 7 1 11 -7 10 -18 -1 -19 0 -19 17 3 10 12 27 22 38 22 11 0 36
16 57 35 21 19 42 32 47 29 11 -7 10 9 -1 22 -5 5 -11 18 -14 29 -4 16 -5 14
-6 -6z"/>
<path d="M700 1870 c-9 -6 -10 -10 -3 -10 6 0 15 5 18 10 8 12 4 12 -15 0z"/>
<path d="M790 1620 c-9 -6 -10 -10 -3 -10 6 0 15 5 18 10 8 12 4 12 -15 0z"/>
<path d="M1526 1097 c3 -10 9 -15 12 -12 3 3 0 11 -7 18 -10 9 -11 8 -5 -6z"/>
</g>
</svg>
